<?xml version="1.0" encoding="UTF-8"?>
<!DOCTYPE svg PUBLIC "-//W3C//DTD SVG 1.1//EN" "http://www.w3.org/Graphics/SVG/1.1/DTD/svg11.dtd">
<svg xmlns="http://www.w3.org/2000/svg" version="1.1" width="512px" height="512px" style="shape-rendering:geometricPrecision; text-rendering:geometricPrecision; image-rendering:optimizeQuality; fill-rule:evenodd; clip-rule:evenodd" xmlns:xlink="http://www.w3.org/1999/xlink">
<g><path style="opacity:0.999" fill="#000000" d="M 83.5,15.5 C 198.167,15.3333 312.834,15.5 427.5,16C 429.333,16.5 430.5,17.6667 431,19.5C 431.667,43.5 431.667,67.5 431,91.5C 430.5,93.3333 429.333,94.5 427.5,95C 420.842,95.4996 414.175,95.6663 407.5,95.5C 407.667,227.5 407.5,359.5 407,491.5C 406.5,493.333 405.333,494.5 403.5,495C 379.5,495.667 355.5,495.667 331.5,495C 329.667,494.5 328.5,493.333 328,491.5C 327.5,482.173 327.334,472.839 327.5,463.5C 279.5,463.5 231.5,463.5 183.5,463.5C 183.666,472.839 183.5,482.173 183,491.5C 182.5,493.333 181.333,494.5 179.5,495C 155.5,495.667 131.5,495.667 107.5,495C 105.667,494.5 104.5,493.333 104,491.5C 103.5,359.5 103.333,227.5 103.5,95.5C 96.825,95.6663 90.1583,95.4996 83.5,95C 81.6667,94.5 80.5,93.3333 80,91.5C 79.3333,67.5 79.3333,43.5 80,19.5C 80.6897,17.6498 81.8564,16.3164 83.5,15.5 Z"/></g>
<g><path style="opacity:1" fill="#fc8c25" d="M 95.5,31.5 C 202.167,31.5 308.833,31.5 415.5,31.5C 415.5,36.8333 415.5,42.1667 415.5,47.5C 308.833,47.5 202.167,47.5 95.5,47.5C 95.5,42.1667 95.5,36.8333 95.5,31.5 Z"/></g>
<g><path style="opacity:1" fill="#fcb431" d="M 95.5,63.5 C 202.167,63.5 308.833,63.5 415.5,63.5C 415.5,68.8333 415.5,74.1667 415.5,79.5C 308.833,79.5 202.167,79.5 95.5,79.5C 95.5,74.1667 95.5,68.8333 95.5,63.5 Z"/></g>
<g><path style="opacity:1" fill="#fc8b25" d="M 119.5,95.5 C 151.84,95.1668 184.174,95.5001 216.5,96.5C 224.485,120.161 240.819,129.994 265.5,126C 280.703,121.63 290.37,111.797 294.5,96.5C 326.826,95.5001 359.16,95.1668 391.5,95.5C 391.5,116.833 391.5,138.167 391.5,159.5C 300.833,159.5 210.167,159.5 119.5,159.5C 119.5,138.167 119.5,116.833 119.5,95.5 Z"/></g>
<g><path style="opacity:1" fill="#dd6609" d="M 233.5,95.5 C 248.167,95.5 262.833,95.5 277.5,95.5C 272.413,108.046 263.079,113.213 249.5,111C 241.647,108.312 236.314,103.145 233.5,95.5 Z"/></g>
<g><path style="opacity:1" fill="#fcb331" d="M 119.5,175.5 C 151.84,175.167 184.174,175.5 216.5,176.5C 224.485,200.161 240.819,209.994 265.5,206C 280.703,201.63 290.37,191.797 294.5,176.5C 326.826,175.5 359.16,175.167 391.5,175.5C 391.5,218.167 391.5,260.833 391.5,303.5C 300.833,303.5 210.167,303.5 119.5,303.5C 119.5,260.833 119.5,218.167 119.5,175.5 Z"/></g>
<g><path style="opacity:1" fill="#dd6609" d="M 233.5,175.5 C 248.167,175.5 262.833,175.5 277.5,175.5C 272.413,188.046 263.079,193.213 249.5,191C 241.647,188.312 236.314,183.145 233.5,175.5 Z"/></g>
<g><path style="opacity:1" fill="#fc8b25" d="M 119.5,319.5 C 151.84,319.167 184.174,319.5 216.5,320.5C 224.485,344.161 240.819,353.994 265.5,350C 280.703,345.63 290.37,335.797 294.5,320.5C 326.826,319.5 359.16,319.167 391.5,319.5C 391.5,372.833 391.5,426.167 391.5,479.5C 375.5,479.5 359.5,479.5 343.5,479.5C 343.667,459.831 343.5,440.164 343,420.5C 342.535,419.069 341.701,417.903 340.5,417C 312.06,415.845 283.56,415.345 255,415.5C 226.749,415.341 198.582,415.841 170.5,417C 169.299,417.903 168.465,419.069 168,420.5C 167.5,440.164 167.333,459.831 167.5,479.5C 151.5,479.5 135.5,479.5 119.5,479.5C 119.5,426.167 119.5,372.833 119.5,319.5 Z"/></g>
<g><path style="opacity:1" fill="#dd6609" d="M 233.5,319.5 C 248.167,319.5 262.833,319.5 277.5,319.5C 272.413,332.046 263.079,337.213 249.5,335C 241.647,332.312 236.314,327.145 233.5,319.5 Z"/></g>
<g><path style="opacity:1" fill="#e06809" d="M 183.5,431.5 C 231.5,431.5 279.5,431.5 327.5,431.5C 327.5,436.833 327.5,442.167 327.5,447.5C 279.5,447.5 231.5,447.5 183.5,447.5C 183.5,442.167 183.5,436.833 183.5,431.5 Z"/></g>
</svg>
