<?xml version="1.0" encoding="UTF-8"?>
<!DOCTYPE svg PUBLIC "-//W3C//DTD SVG 1.1//EN" "http://www.w3.org/Graphics/SVG/1.1/DTD/svg11.dtd">
<svg xmlns="http://www.w3.org/2000/svg" version="1.1" width="512px" height="512px" style="shape-rendering:geometricPrecision; text-rendering:geometricPrecision; image-rendering:optimizeQuality; fill-rule:evenodd; clip-rule:evenodd" xmlns:xlink="http://www.w3.org/1999/xlink">
<g><path style="opacity:0.999" fill="#000000" d="M 19.5,95.5 C 176.834,95.3333 334.167,95.5 491.5,96C 493.333,96.5 494.5,97.6667 495,99.5C 495.964,113.594 495.631,127.594 494,141.5C 493.25,142.126 492.416,142.626 491.5,143C 482.173,143.5 472.839,143.666 463.5,143.5C 463.995,233.582 463.495,323.582 462,413.5C 461.25,414.126 460.416,414.626 459.5,415C 323.5,415.667 187.5,415.667 51.5,415C 50.5838,414.626 49.7504,414.126 49,413.5C 47.5051,323.582 47.0051,233.582 47.5,143.5C 38.1607,143.666 28.8274,143.5 19.5,143C 18.5838,142.626 17.7504,142.126 17,141.5C 15.3691,127.594 15.0358,113.594 16,99.5C 16.6897,97.6498 17.8564,96.3164 19.5,95.5 Z"/></g>
<g><path style="opacity:1" fill="#925739" d="M 55.5,111.5 C 55.5,116.833 55.5,122.167 55.5,127.5C 47.5,127.5 39.5,127.5 31.5,127.5C 31.5,122.167 31.5,116.833 31.5,111.5C 39.5,111.5 47.5,111.5 55.5,111.5 Z"/></g>
<g><path style="opacity:1" fill="#aa6642" d="M 55.5,111.5 C 188.833,111.5 322.167,111.5 455.5,111.5C 455.5,116.833 455.5,122.167 455.5,127.5C 322.167,127.5 188.833,127.5 55.5,127.5C 55.5,122.167 55.5,116.833 55.5,111.5 Z"/></g>
<g><path style="opacity:1" fill="#925739" d="M 455.5,111.5 C 463.5,111.5 471.5,111.5 479.5,111.5C 479.5,116.833 479.5,122.167 479.5,127.5C 471.5,127.5 463.5,127.5 455.5,127.5C 455.5,122.167 455.5,116.833 455.5,111.5 Z"/></g>
<g><path style="opacity:1" fill="#aa6542" d="M 63.5,143.5 C 68.8333,143.5 74.1667,143.5 79.5,143.5C 79.0087,222.558 79.5087,301.558 81,380.5C 81.9025,381.701 83.0692,382.535 84.5,383C 198.167,383.667 311.833,383.667 425.5,383C 427.329,382.727 428.829,381.893 430,380.5C 431.491,301.558 431.991,222.558 431.5,143.5C 436.833,143.5 442.167,143.5 447.5,143.5C 447.5,228.833 447.5,314.167 447.5,399.5C 319.5,399.5 191.5,399.5 63.5,399.5C 63.5,314.167 63.5,228.833 63.5,143.5 Z"/></g>
<g><path style="opacity:1" fill="#e8a42e" d="M 95.5,143.5 C 132.833,143.5 170.167,143.5 207.5,143.5C 207.333,155.838 207.5,168.171 208,180.5C 211.173,198.674 221.673,210.174 239.5,215C 248.5,215.333 257.5,215.667 266.5,216C 267.931,216.465 269.097,217.299 270,218.5C 271.063,231.451 272.063,244.451 273,257.5C 281.189,280.513 297.355,290.013 321.5,286C 338.412,281.087 348.245,269.92 351,252.5C 351.088,246.39 351.755,240.39 353,234.5C 357.333,230.5 361.667,230.5 366,234.5C 367.309,253.41 367.975,272.41 368,291.5C 372.408,310.902 384.574,320.069 404.5,319C 408.011,318.33 411.344,317.163 414.5,315.5C 415.5,332.821 415.833,350.154 415.5,367.5C 308.833,367.5 202.167,367.5 95.5,367.5C 95.5,292.833 95.5,218.167 95.5,143.5 Z"/></g>
<g><path style="opacity:1" fill="#fcb331" d="M 223.5,143.5 C 287.5,143.5 351.5,143.5 415.5,143.5C 415.667,193.168 415.5,242.834 415,292.5C 409.496,302.92 401.329,305.753 390.5,301C 387.567,298.736 385.4,295.902 384,292.5C 383.667,272.833 383.333,253.167 383,233.5C 376.208,217.854 364.708,212.687 348.5,218C 336.367,226.708 331.867,238.541 335,253.5C 327.591,270.303 315.424,275.136 298.5,268C 292.983,264.158 289.483,258.991 288,252.5C 287.667,240.833 287.333,229.167 287,217.5C 284.256,209.755 279.089,204.255 271.5,201C 260.476,200.053 249.476,199.053 238.5,198C 231.091,194.261 226.257,188.428 224,180.5C 223.5,168.171 223.333,155.838 223.5,143.5 Z"/></g>
<g><path style="opacity:1" fill="#040200" d="M 180.5,223.5 C 183.271,223.421 185.937,223.921 188.5,225C 199.167,230.333 209.833,235.667 220.5,241C 221.701,241.903 222.535,243.069 223,244.5C 223.333,254.5 223.667,264.5 224,274.5C 233.422,279.461 242.922,284.294 252.5,289C 253.701,289.903 254.535,291.069 255,292.5C 255.944,305.903 255.611,319.236 254,332.5C 242.192,339.321 230.025,345.488 217.5,351C 215.833,351.667 214.167,351.667 212.5,351C 202.833,346.167 193.167,341.333 183.5,336.5C 174.5,341 165.5,345.5 156.5,350C 153.923,351.25 151.257,351.584 148.5,351C 137.167,345.333 125.833,339.667 114.5,334C 113.107,332.829 112.273,331.329 112,329.5C 111.039,316.405 111.372,303.405 113,290.5C 122.841,284.912 132.841,279.579 143,274.5C 143.333,264.5 143.667,254.5 144,244.5C 144.465,243.069 145.299,241.903 146.5,241C 158.051,235.392 169.384,229.559 180.5,223.5 Z"/></g>
<g><path style="opacity:1" fill="#e7a42e" d="M 182.5,240.5 C 190.6,244.049 198.6,247.883 206.5,252C 207.833,259.667 207.833,267.333 206.5,275C 198.833,278.833 191.167,282.667 183.5,286.5C 175.833,282.667 168.167,278.833 160.5,275C 159.353,267.58 159.187,260.08 160,252.5C 167.641,248.598 175.141,244.598 182.5,240.5 Z"/></g>
<g><path style="opacity:1" fill="#e7a42e" d="M 150.5,288.5 C 158.6,292.049 166.6,295.883 174.5,300C 175.833,307.667 175.833,315.333 174.5,323C 166.833,326.833 159.167,330.667 151.5,334.5C 143.833,330.667 136.167,326.833 128.5,323C 127.353,315.58 127.187,308.08 128,300.5C 135.641,296.598 143.141,292.598 150.5,288.5 Z"/></g>
<g><path style="opacity:1" fill="#e7a42e" d="M 214.5,288.5 C 222.6,292.049 230.6,295.883 238.5,300C 239.833,307.667 239.833,315.333 238.5,323C 230.833,326.833 223.167,330.667 215.5,334.5C 207.833,330.667 200.167,326.833 192.5,323C 191.353,315.58 191.187,308.08 192,300.5C 199.641,296.598 207.141,292.598 214.5,288.5 Z"/></g>
</svg>
